<?xml version="1.0" encoding="UTF-8"?>
<svg version="1.1" xmlns="http://www.w3.org/2000/svg" width="534" height="434">
<path d="M0 0 C3.1678568 1.64310251 3.1678568 1.64310251 6.640625 1.71875 C8.7878141 1.01927378 8.7878141 1.01927378 10.94921875 0.04296875 C14.24063268 -1.3493633 17.61451126 -2.2783225 21.0625 -3.1875 C21.71734375 -3.36047607 22.3721875 -3.53345215 23.046875 -3.71166992 C27.90279976 -4.96045842 32.55621694 -5.85942326 37.5625 -6.0625 C38.89087891 -6.12244141 38.89087891 -6.12244141 40.24609375 -6.18359375 C64.73895654 -6.73655347 87.11941633 0.86325277 105.5625 16.9375 C106.17222656 17.41574219 106.78195312 17.89398438 107.41015625 18.38671875 C126.46225367 33.53291921 137.73875236 59.16667892 140.5625 82.9375 C140.7981274 85.91454197 140.96911962 88.89282953 141.125 91.875 C141.16818359 92.65423828 141.21136719 93.43347656 141.25585938 94.23632812 C141.36078077 96.13657117 141.4620245 98.03701669 141.5625 99.9375 C142.16835938 100.205625 142.77421875 100.47375 143.3984375 100.75 C164.07605264 110.42076154 178.51112802 128.94180009 186.5625 149.9375 C193.58966213 172.50709132 191.73044913 195.71639205 181.5625 216.9375 C169.34809489 239.40380388 150.01058113 254.82044597 126.0078125 263.04296875 C112.93158129 266.43804465 99.9553588 266.36740046 86.51953125 266.484375 C85.37231787 266.49502235 84.22510448 266.50566971 83.04312706 266.51663971 C76.9832872 266.56979887 70.92352583 266.60866261 64.86352539 266.63769531 C59.86506705 266.66446563 54.86822406 266.72037398 49.87036133 266.80175781 C43.80681474 266.90044384 37.74474087 266.94993427 31.68042564 266.96414948 C29.37947111 266.9775479 27.07854789 267.00792426 24.77805519 267.05593109 C5.86890072 267.42838791 5.86890072 267.42838791 1.20922852 263.7492981 C-1.0587094 261.24957997 -2.73982302 258.84166783 -4.4375 255.9375 C-5.94210278 254.23777163 -5.94210278 254.23777163 -7.4765625 252.8359375 C-15.29705513 245.2044598 -15.29705513 245.2044598 -18.8125 241.0625 C-21.9987939 237.32206803 -25.44629685 233.88945962 -28.9375 230.4375 C-32.9921517 226.42837421 -36.87728152 222.37885496 -40.56640625 218.02734375 C-43.57900691 214.66253925 -46.82322042 211.53204812 -50.03540039 208.35913086 C-53.36809062 205.05150237 -56.48958116 201.64093393 -59.53125 198.0625 C-62.55475454 194.69203593 -65.80364849 191.55123948 -69.02416992 188.37036133 C-72.45910237 184.96139781 -75.69811869 181.44826942 -78.8359375 177.76171875 C-81.55025711 174.67004251 -84.48959608 171.80476218 -87.4375 168.9375 C-85.9007131 165.29387416 -83.71657086 162.9688347 -80.93115234 160.18823242 C-80.2477327 159.50196526 -80.2477327 159.50196526 -79.55050659 158.80183411 C-78.04632196 157.29395253 -76.53506721 155.79338378 -75.0234375 154.29296875 C-73.96892395 153.23964872 -72.91478136 152.1859572 -71.86099243 151.13191223 C-69.64982846 148.92231177 -67.43534988 146.71610703 -65.21826172 144.51245117 C-62.39578968 141.70687471 -59.57984976 138.89485598 -56.7661953 136.08043957 C-54.58728158 133.90179988 -52.4057546 131.72579255 -50.22337723 129.55062294 C-49.18552913 128.5159284 -48.14826043 127.48065234 -47.11161423 126.44475365 C-42.53974237 121.8797792 -37.98295 117.33745512 -33.06005859 113.14672852 C-30.68752654 111.1232403 -28.68168291 109.12439034 -26.77832031 106.65527344 C-22.66636633 101.56846833 -19.33874618 97.88447736 -12.63476562 96.97460938 C-7.13619995 96.61447927 -1.6823789 96.88576084 3.8125 97.1875 C5.73290469 97.24780648 7.6534929 97.30253938 9.57421875 97.3515625 C14.24157722 97.4826883 18.89997695 97.689019 23.5625 97.9375 C21.74186505 101.93103125 19.13078689 104.39150254 15.875 107.25 C14.78142636 108.229213 13.6889726 109.20967816 12.59765625 110.19140625 C12.07187988 110.66336426 11.54610352 111.13532227 11.00439453 111.62158203 C9.21488489 113.2547444 7.50568503 114.95502994 5.8125 116.6875 C3.58602619 118.96402323 1.28131111 121.07402134 -1.140625 123.140625 C-5.44268064 126.88248632 -9.4466855 130.8687399 -13.4375 134.9375 C-18.01747885 139.60693156 -22.66847153 144.07845888 -27.625 148.34765625 C-30.00865643 150.43849282 -32.22614325 152.66637685 -34.4375 154.9375 C-38.60324552 159.1548337 -42.92293087 163.10018738 -47.4375 166.9375 C-43.22536513 171.91372641 -38.90123892 176.74873408 -34.4375 181.5 C-33.46780273 182.53447266 -33.46780273 182.53447266 -32.47851562 183.58984375 C-27.51466262 188.85760612 -22.44442511 194.00808451 -17.26953125 199.06860352 C-14.42974704 201.86326404 -11.73230411 204.71430929 -9.13671875 207.73828125 C-4.92162457 212.61676514 -0.34206278 217.10429795 4.25 221.625 C5.92295904 223.27231982 7.59361173 224.92198586 9.26171875 226.57421875 C9.99221436 227.29311279 10.72270996 228.01200684 11.4753418 228.75268555 C13.5625 230.9375 13.5625 230.9375 15.70629883 233.64770508 C17.35777384 236.00729896 17.35777384 236.00729896 19.5625 236.9375 C22.05248031 237.03777274 24.51362134 237.0770201 27.00390625 237.0703125 C28.16572418 237.07249535 28.16572418 237.07249535 29.35101318 237.07472229 C31.94238859 237.07700203 34.53363717 237.070597 37.125 237.0625 C38.0157724 237.06061676 38.9065448 237.05873352 39.8243103 237.05679321 C46.73724145 237.0398552 53.64979173 236.99444356 60.5625 236.9375 C62.17112915 236.9245993 62.17112915 236.9245993 63.81225586 236.91143799 C70.42473192 236.85504134 77.03649607 236.77640077 83.64840698 236.67303467 C85.7827221 236.64126087 87.91711046 236.61404717 90.05154419 236.59161377 C111.25244258 236.35644365 129.38846931 233.40094925 144.93359375 217.83203125 C155.90994679 205.74662619 161.1374029 190.86802646 160.74609375 174.6171875 C159.70308358 159.39367741 152.87790373 145.61527879 141.8125 135.125 C129.89213959 125.36344502 117.41422035 123.64558498 102.5625 123.5234375 C101.11660693 123.5046994 99.67072449 123.48512407 98.22485352 123.4647522 C94.44385076 123.41370363 90.66281265 123.37393317 86.88165283 123.33660889 C83.01346286 123.2963969 79.14541644 123.24538355 75.27734375 123.1953125 C67.70582811 123.09887679 60.13424226 123.01436999 52.5625 122.9375 C52.5625 122.2775 52.5625 121.6175 52.5625 120.9375 C53.85546875 119.66796875 53.85546875 119.66796875 55.75 118.125 C59.75032062 114.74284615 63.40059336 111.11191973 67.0625 107.375 C80.83269014 93.45093094 80.83269014 93.45093094 90.53857422 92.71044922 C92.06248779 92.72615967 92.06248779 92.72615967 93.6171875 92.7421875 C94.72578125 92.74863281 95.834375 92.75507812 96.9765625 92.76171875 C98.68972656 92.78685547 98.68972656 92.78685547 100.4375 92.8125 C101.6028125 92.82152344 102.768125 92.83054687 103.96875 92.83984375 C106.83354577 92.86332568 109.69791535 92.89616859 112.5625 92.9375 C108.40479094 69.1791625 100.46171987 49.89594347 80.19921875 35.2265625 C65.57568786 25.79665878 47.61139949 22.41671845 30.5078125 25.5859375 C22.71339001 27.48187811 16.23362019 30.36954436 9.3671875 34.44921875 C6.60361354 35.91568348 4.68610723 36.80458054 1.5625 36.9375 C-0.47265625 35.71484375 -0.47265625 35.71484375 -2.5 33.875 C-17.30493699 21.59057295 -38.00047379 16.71742174 -56.99365234 18.26538086 C-75.79367874 20.33489121 -95.37708641 28.57825535 -107.68261719 43.44140625 C-118.9731024 57.68711914 -124.6530604 73.10054533 -127.4375 90.9375 C-128.46488281 90.99808594 -129.49226563 91.05867188 -130.55078125 91.12109375 C-132.68771873 91.2472827 -134.82351502 91.380135 -136.95898438 91.52929688 C-140.21085109 91.75563826 -143.40591157 91.93776737 -146.66796875 91.91015625 C-150.58071708 91.94878705 -153.32628772 92.12219714 -156.53515625 94.4765625 C-161.41455888 99.65668378 -165.21717179 105.88743161 -169.02563477 111.88330078 C-171.60215499 115.90758987 -173.3268119 118.43943835 -178.15234375 119.578125 C-179.21582031 119.77921875 -180.27929688 119.9803125 -181.375 120.1875 C-195.97839168 123.46151234 -208.79046279 131.65497315 -216.9453125 144.35546875 C-225.79267706 159.66465193 -228.72875986 175.77385158 -224.26757812 192.9050293 C-219.69432742 209.1274508 -210.28844272 220.97352268 -195.71875 229.31640625 C-185.20718941 234.50961773 -175.36924121 236.09522813 -163.78564453 236.01586914 C-161.58765714 236.00975585 -159.38966923 236.00382881 -157.19168091 235.99806213 C-156.03153599 235.99338991 -154.87139107 235.98871769 -153.67609024 235.98390388 C-147.51711905 235.96469198 -141.35819898 235.97993712 -135.19921875 235.99023438 C-127.36876731 236.00248848 -119.53886309 236.00409376 -111.70849609 235.96166992 C-105.37293916 235.92825398 -99.03846141 235.9337135 -92.70290756 235.96523857 C-90.29242519 235.97016072 -87.88186968 235.96089095 -85.4715004 235.93702888 C-82.09583049 235.90556681 -78.72375609 235.92382687 -75.34814453 235.95336914 C-74.35775177 235.93238663 -73.36735901 235.91140411 -72.34695435 235.88978577 C-66.77552584 235.99766356 -63.93433688 236.84290979 -59.91207886 240.81517029 C-58.72546563 242.16481394 -57.56390202 243.53721166 -56.4375 244.9375 C-55.61121094 245.90816406 -54.78492188 246.87882812 -53.93359375 247.87890625 C-53.25425781 248.74386719 -52.57492188 249.60882813 -51.875 250.5 C-48.71425952 254.44955613 -45.46072392 258.06414452 -41.75 261.5 C-40.4375 262.9375 -40.4375 262.9375 -39.4375 265.9375 C-56.76296088 266.00785404 -74.08837661 266.0606166 -91.41394806 266.09293652 C-99.46009624 266.10834793 -107.50615521 266.12932665 -115.55224609 266.16381836 C-122.57237644 266.19389745 -129.59244213 266.21311651 -136.61263514 266.21976548 C-140.3232948 266.22364671 -144.03376961 266.23264559 -147.74436951 266.25469017 C-177.94038734 266.42695274 -205.01914544 263.12865644 -227.46484375 241.01171875 C-244.93401203 223.19618384 -254.11276126 201.74551291 -254.6875 176.875 C-254.45475827 153.55427843 -245.83775783 132.21479482 -229.81640625 115.24609375 C-210.88572891 96.87494382 -188.18264577 88.41853833 -162.02392578 88.78369141 C-160.16152309 88.82440191 -158.29943866 88.87931442 -156.4375 88.9375 C-156.36273438 88.15890625 -156.28796875 87.3803125 -156.2109375 86.578125 C-153.60455128 64.39828932 -145.58967087 42.64373968 -130.4375 25.9375 C-129.75300781 25.12410156 -129.06851563 24.31070313 -128.36328125 23.47265625 C-97.32481072 -12.69245573 -41.92674364 -24.17105932 0 0 Z " fill="#52A1C2" transform="translate(299.4375,31.0625)"/>
<path d="M0 0 C0.33 0 0.66 0 1 0 C1 3.3 1 6.6 1 10 C0.01 10.33 -0.98 10.66 -2 11 C-2.13019531 11.55300781 -2.26039063 12.10601562 -2.39453125 12.67578125 C-3.28763891 16.10416228 -5.49874327 18.48211282 -7.6875 21.1875 C-10.77973423 25.02939956 -13.40990032 28.66790062 -15.6875 33.0625 C-19.0673762 38.32859606 -24.36105739 38.8064892 -30.1171875 40.0625 C-43.3913392 43.26752657 -55.15599419 51.96812732 -62.5078125 63.41796875 C-71.35517706 78.72715193 -74.29125986 94.83635158 -69.83007812 111.9675293 C-65.25682742 128.1899508 -55.85094272 140.03602268 -41.28125 148.37890625 C-30.76968941 153.57211773 -20.93174121 155.15772813 -9.34814453 155.07836914 C-7.15015714 155.07225585 -4.95216923 155.06632881 -2.75418091 155.06056213 C-1.59403599 155.05588991 -0.43389107 155.05121769 0.76140976 155.04640388 C6.92038095 155.02719198 13.07930102 155.04243712 19.23828125 155.05273438 C27.06873269 155.06498848 34.89863691 155.06659376 42.72900391 155.02416992 C49.06456084 154.99075398 55.39903859 154.9962135 61.73459244 155.02773857 C64.14507481 155.03266072 66.55563032 155.02339095 68.9659996 154.99952888 C72.34166951 154.96806681 75.71374391 154.98632687 79.08935547 155.01586914 C80.07974823 154.99488663 81.07014099 154.97390411 82.09054565 154.95228577 C87.66197416 155.06016356 90.50316312 155.90540979 94.52542114 159.87767029 C95.71203437 161.22731394 96.87359798 162.59971166 98 164 C98.82628906 164.97066406 99.65257812 165.94132813 100.50390625 166.94140625 C101.18324219 167.80636719 101.86257812 168.67132813 102.5625 169.5625 C105.72324048 173.51205613 108.97677608 177.12664452 112.6875 180.5625 C114 182 114 182 115 185 C97.67453912 185.07035404 80.34912339 185.1231166 63.02355194 185.15543652 C54.97740376 185.17084793 46.93134479 185.19182665 38.88525391 185.22631836 C31.86512356 185.25639745 24.84505787 185.27561651 17.82486486 185.28226548 C14.1142052 185.28614671 10.40373039 185.29514559 6.69313049 185.31719017 C-23.50288734 185.48945274 -50.58164544 182.19115644 -73.02734375 160.07421875 C-90.49651203 142.25868384 -99.67526126 120.80801291 -100.25 95.9375 C-100.01725827 72.61677843 -91.40025783 51.27729482 -75.37890625 34.30859375 C-60.02734288 19.41077117 -39.36049429 8.13334184 -17.44775391 7.98242188 C-11.94679301 8.11480598 -6.47919683 8.50568116 -1 9 C-0.67 6.03 -0.34 3.06 0 0 Z " fill="#DDD3AE" transform="translate(145,112)"/>
<path d="M0 0 C4.62 0 9.24 0 14 0 C17.71281452 3.93564616 19.87390369 6.78581291 22.4375 11.375 C23.72706748 13.50829455 25.01742479 15.64111186 26.30859375 17.7734375 C26.91558105 18.81338867 27.52256836 19.85333984 28.14794922 20.92480469 C30.87105459 25.44632266 33.90131886 29.73012141 37 34 C41.54603036 27.86368244 45.94705047 21.66284723 50.1875 15.3125 C50.84032959 14.352229 50.84032959 14.352229 51.50634766 13.37255859 C53.76521784 10.01679563 55.58041109 6.75523782 57.25 3.0625 C58.1575 2.051875 59.065 1.04125 60 0 C64.62 0 69.24 0 74 0 C74 22.77 74 45.54 74 69 C69.38 69 64.76 69 60 69 C57.86913558 66.86913558 58.74039128 62.10833065 58.68359375 59.15234375 C58.66281265 58.2659169 58.64203156 57.37949005 58.62062073 56.46620178 C58.555026 53.623383 58.49619448 50.78046883 58.4375 47.9375 C58.3943242 46.01496394 58.35071022 44.09243766 58.30664062 42.16992188 C58.19933457 37.44671332 58.09809549 32.72340847 58 28 C57.62190186 28.58491211 57.24380371 29.16982422 56.85424805 29.77246094 C55.13348861 32.43260783 53.41051798 35.0913155 51.6875 37.75 C51.09259766 38.67039062 50.49769531 39.59078125 49.88476562 40.5390625 C49.30791016 41.42851562 48.73105469 42.31796875 48.13671875 43.234375 C47.60780029 44.05131836 47.07888184 44.86826172 46.53393555 45.70996094 C42.41917039 51.85296543 42.41917039 51.85296543 39.984375 52.70703125 C36.44407517 52.8741433 34.00532555 52.83667617 31.20703125 50.5078125 C29.31271021 48.1230378 27.66906186 45.54751547 26 43 C22.7 38.05 19.4 33.1 16 28 C15.67 41.53 15.34 55.06 15 69 C10.05 69 5.1 69 0 69 C0 46.23 0 23.46 0 0 Z " fill="#E9E8E8" transform="translate(213,346)"/>
<path d="M0 0 C5.79155693 2.18674794 10.97209727 5.27257794 16.3125 8.375 C17.33923828 8.9525 18.36597656 9.53 19.42382812 10.125 C20.39384766 10.68960938 21.36386719 11.25421875 22.36328125 11.8359375 C23.25313721 12.34688965 24.14299316 12.8578418 25.05981445 13.38427734 C26.0202063 14.18406006 26.0202063 14.18406006 27 15 C27 19.00612364 26.99272119 19.50970683 24.83203125 22.4765625 C24.35757568 23.13793213 23.88312012 23.79930176 23.39428711 24.48071289 C22.61130249 25.54213501 22.61130249 25.54213501 21.8125 26.625 C21.27439697 27.37064209 20.73629395 28.11628418 20.18188477 28.88452148 C18.46321847 31.26274242 16.73210859 33.63155717 15 36 C12.80896974 39.01828217 10.62326033 42.0404003 8.4375 45.0625 C7.89327393 45.81289551 7.34904785 46.56329102 6.78833008 47.33642578 C3.28648027 52.17661873 -0.13498965 57.06387411 -3.5 62 C-8.96432745 70.01189224 -14.63636626 77.86515847 -20.33837891 85.70898438 C-21.9959464 87.99441096 -23.64574763 90.28523236 -25.29296875 92.578125 C-31.04976323 100.58754089 -36.86810506 108.54215578 -42.8059082 116.41845703 C-46.93616595 121.89900474 -50.98880444 127.43151675 -55 133 C-55.99 132.67 -56.98 132.34 -58 132 C-57.42769776 127.74720911 -56.41909388 124.21524234 -54.69140625 120.29296875 C-54.2013208 119.17092041 -53.71123535 118.04887207 -53.20629883 116.89282227 C-52.65854546 115.6576352 -52.1106059 114.42253068 -51.5625 113.1875 C-50.98339073 111.86996391 -50.40487612 110.55216631 -49.8269043 109.23413086 C-48.56571785 106.3606405 -47.30054375 103.48894507 -46.03320312 100.61816406 C-43.92778422 95.84362061 -41.84624553 91.05882653 -39.765625 86.2734375 C-32.13687952 68.7503276 -24.37830957 51.29303901 -16.375 33.9375 C-15.82653915 32.74569626 -15.82653915 32.74569626 -15.26699829 31.52981567 C-10.37666659 20.91663465 -5.28654701 10.42146712 0 0 Z " fill="#9AB4B9" transform="translate(222,98)"/>
<path d="M0 0 C15.51 0 31.02 0 47 0 C47 3.96 47 7.92 47 12 C46 13 46 13 43.04077148 13.11352539 C41.74727783 13.10828857 40.45378418 13.10305176 39.12109375 13.09765625 C38.09110008 13.09553383 38.09110008 13.09553383 37.04029846 13.09336853 C34.83932199 13.08775479 32.63844591 13.07520007 30.4375 13.0625 C28.94856917 13.05748676 27.45963676 13.05292355 25.97070312 13.04882812 C22.31373195 13.03863021 18.65697883 13.01905779 15 13 C15 17.95 15 22.9 15 28 C16.92585938 27.98839844 18.85171875 27.97679687 20.8359375 27.96484375 C23.34895737 27.95546681 25.86197828 27.94636651 28.375 27.9375 C29.64601563 27.92912109 30.91703125 27.92074219 32.2265625 27.91210938 C34.04414063 27.90727539 34.04414063 27.90727539 35.8984375 27.90234375 C37.01911621 27.89710693 38.13979492 27.89187012 39.29443359 27.88647461 C42 28 42 28 44 29 C44.44921875 31.46875 44.44921875 31.46875 44.6875 34.5 C44.77386719 35.5003125 44.86023438 36.500625 44.94921875 37.53125 C44.96597656 38.3459375 44.98273437 39.160625 45 40 C44 41 44 41 41.22436523 41.11352539 C40.01466064 41.10828857 38.80495605 41.10305176 37.55859375 41.09765625 C36.25341797 41.09443359 34.94824219 41.09121094 33.60351562 41.08789062 C32.2148431 41.07953401 30.82617123 41.07106905 29.4375 41.0625 C28.04492344 41.05748666 26.65234519 41.05292347 25.25976562 41.04882812 C21.83982549 41.03699442 18.4199075 41.01905831 15 41 C15 46.28 15 51.56 15 57 C18.44759766 56.98259766 18.44759766 56.98259766 21.96484375 56.96484375 C24.18220888 56.95705291 26.39957251 56.95097631 28.61694336 56.94506836 C30.16219766 56.9400286 31.70744716 56.9331968 33.25268555 56.92456055 C35.46925029 56.91247924 37.68575218 56.90676827 39.90234375 56.90234375 C40.5971434 56.89718246 41.29194305 56.89202118 42.00779724 56.88670349 C43.6722933 56.88650723 45.33665499 56.93810871 47 57 C48 58 48 58 48.1328125 59.99609375 C48.13023437 60.80175781 48.12765625 61.60742188 48.125 62.4375 C48.12886719 63.64212891 48.12886719 63.64212891 48.1328125 64.87109375 C48 67 48 67 47 69 C31.49 69 15.98 69 0 69 C0 46.23 0 23.46 0 0 Z " fill="#E6E6E5" transform="translate(468,346)"/>
<path d="M0 0 C1.79244141 0.01740234 1.79244141 0.01740234 3.62109375 0.03515625 C5.41740234 0.04869141 5.41740234 0.04869141 7.25 0.0625 C8.17683594 0.07410156 9.10367188 0.08570313 10.05859375 0.09765625 C14.27270707 9.10490303 18.05330224 18.26846802 21.80859375 27.47265625 C26.27614237 38.39919203 30.77871609 49.30303927 35.56933594 60.09326172 C38.05859375 65.77870736 38.05859375 65.77870736 38.05859375 69.09765625 C33.10859375 69.09765625 28.15859375 69.09765625 23.05859375 69.09765625 C17.05859375 56.34765625 17.05859375 56.34765625 17.05859375 54.09765625 C7.81859375 54.09765625 -1.42140625 54.09765625 -10.94140625 54.09765625 C-11.93140625 57.39765625 -12.92140625 60.69765625 -13.94140625 64.09765625 C-14.60140625 65.74765625 -15.26140625 67.39765625 -15.94140625 69.09765625 C-21.22140625 69.09765625 -26.50140625 69.09765625 -31.94140625 69.09765625 C-29.97008321 62.96676181 -27.75818584 57.04894918 -25.2109375 51.13671875 C-24.6797657 49.89165054 -24.6797657 49.89165054 -24.13786316 48.62142944 C-23.01319989 45.98706999 -21.88373612 43.35480338 -20.75390625 40.72265625 C-19.6476131 38.13652273 -18.54233289 35.54995821 -17.43722534 32.96331787 C-16.70533096 31.25096043 -15.97268987 29.53892194 -15.23928833 27.82720947 C-13.35600235 23.42813948 -11.48734826 19.02356863 -9.64208984 14.60839844 C-9.27419846 13.72888519 -8.90630707 12.84937195 -8.52726746 11.94320679 C-7.82449963 10.2603776 -7.12382224 8.57667352 -6.42549133 6.89199829 C-3.59679284 0.11941543 -3.59679284 0.11941543 0 0 Z M2.05859375 20.09765625 C0.72258762 23.57580253 -0.60976267 27.05533764 -1.94140625 30.53515625 C-2.32296875 31.52837891 -2.70453125 32.52160156 -3.09765625 33.54492188 C-3.45859375 34.48916016 -3.81953125 35.43339844 -4.19140625 36.40625 C-4.5265625 37.28079834 -4.86171875 38.15534668 -5.20703125 39.05639648 C-5.99782695 40.8929254 -5.99782695 40.8929254 -5.94140625 42.09765625 C-0.00140625 42.09765625 5.93859375 42.09765625 12.05859375 42.09765625 C9.93319769 34.4909756 7.20630846 27.33864423 4.05859375 20.09765625 C3.39859375 20.09765625 2.73859375 20.09765625 2.05859375 20.09765625 Z " fill="#EAEAEA" transform="translate(339.94140625,345.90234375)"/>
<path d="M0 0 C19.14 0 38.28 0 58 0 C58 3.96 58 7.92 58 12 C57.67 12.33 57.34 12.66 57 13 C50.07 13 43.14 13 36 13 C36 31.48 36 49.96 36 69 C31.05 69 26.1 69 21 69 C21 50.52 21 32.04 21 13 C14.07 13 7.14 13 0 13 C0 8.71 0 4.42 0 0 Z " fill="#E6E6E6" transform="translate(388,346)"/>
<path d="M0 0 C4.95 0 9.9 0 15 0 C15 18.81 15 37.62 15 57 C24.9 57 34.8 57 45 57 C45 60.96 45 64.92 45 69 C30.15 69 15.3 69 0 69 C0 46.23 0 23.46 0 0 Z " fill="#E9E8E8" transform="translate(99,346)"/>
<path d="M0 0 C0.74362793 0.01047363 1.48725586 0.02094727 2.25341797 0.03173828 C3.46191406 0.04140625 3.46191406 0.04140625 4.69482422 0.05126953 C5.95746094 0.07640625 5.95746094 0.07640625 7.24560547 0.10205078 C8.51984375 0.11558594 8.51984375 0.11558594 9.81982422 0.12939453 C11.9202043 0.15299431 14.02043991 0.18886595 16.12060547 0.22705078 C13.22003709 4.78803954 10.00374707 8.802616 6.43310547 12.85205078 C2.46930625 17.4417453 -1.4869883 22.03649906 -5.25439453 26.78955078 C-6.37974609 28.18367188 -6.37974609 28.18367188 -7.52783203 29.60595703 C-9.1433434 32.09717622 -9.1433434 32.09717622 -8.48486328 34.59033203 C-6.23537996 38.28473894 -3.59076977 41.54001383 -0.81689453 44.85205078 C-0.23633301 45.55628174 0.34422852 46.2605127 0.94238281 46.98608398 C2.66257825 49.07136371 4.3903918 51.15008046 6.12060547 53.22705078 C7.83244858 55.28671166 9.54020828 57.34953112 11.24560547 59.41455078 C11.92880859 60.23310547 12.61201172 61.05166016 13.31591797 61.89501953 C15.13346517 64.24366819 16.6473654 66.65116831 18.12060547 69.22705078 C11.77571073 70.25214993 5.37117031 71.13823533 -0.87939453 69.22705078 C-6.01392008 65.52010648 -9.12698717 59.82696942 -12.38867188 54.51464844 C-14.26603075 51.63373578 -16.43293542 49.11673483 -18.69067383 46.53100586 C-22.24869387 42.40361003 -25.56523489 38.5365985 -26.06689453 32.91455078 C-25.42121476 28.03258178 -22.92216162 25.38819166 -19.51611328 22.00048828 C-16.02427226 18.32758883 -13.04507535 14.33802901 -10.00439453 10.28955078 C-8.88309616 8.80044251 -7.76076587 7.31211048 -6.63720703 5.82470703 C-5.91235107 4.85803101 -5.91235107 4.85803101 -5.17285156 3.87182617 C-2.35143418 0.28407817 -2.35143418 0.28407817 0 0 Z " fill="#E9E9E9" transform="translate(59.87939453125,345.77294921875)"/>
<path d="M0 0 C4.95 0 9.9 0 15 0 C15 22.77 15 45.54 15 69 C10.05 69 5.1 69 0 69 C0 46.23 0 23.46 0 0 Z " fill="#E4E4E4" transform="translate(168,346)"/>
<path d="M0 0 C4.62 0 9.24 0 14 0 C14 22.77 14 45.54 14 69 C9.38 69 4.76 69 0 69 C0 46.23 0 23.46 0 0 Z " fill="#EEEEEE" transform="translate(20,346)"/>
<path d="M0 0 C15.76556187 8.70508542 26.78803492 27.47215922 31.99609375 44.19921875 C34.18731501 52.55521563 35.07500618 60.44787858 35.125 69.0625 C35.12975342 69.73571289 35.13450684 70.40892578 35.1394043 71.10253906 C35.12484165 75.51016611 34.71033885 79.66467798 34 84 C33.67 84 33.34 84 33 84 C32.970271 83.0570105 32.970271 83.0570105 32.93994141 82.0949707 C32.34395438 64.09517472 31.77720621 47.15575323 23.33984375 30.77734375 C22 28 22 28 22 25 C21.34 25 20.68 25 20 25 C20 24.34 20 23.68 20 23 C19.34 22.67 18.68 22.34 18 22 C16.96236103 20.71704964 15.96705786 19.39945749 15 18.0625 C13.40650286 15.86745769 11.92136696 13.92136696 10 12 C8.33333333 10.33333333 6.66666667 8.66666667 5 7 C4.071875 6.113125 3.14375 5.22625 2.1875 4.3125 C0 2 0 2 0 0 Z " fill="#0E6C94" transform="translate(455,140)"/>
<path d="M0 0 C5.875 4.625 5.875 4.625 7 8 C-10.48091681 8.02337699 -27.96182873 8.04100276 -45.44275761 8.05181217 C-53.55974412 8.05696493 -61.6767209 8.06398819 -69.79370117 8.07543945 C-76.86977804 8.08541746 -83.94584788 8.09186085 -91.02193159 8.09408849 C-94.76744327 8.0953903 -98.5129348 8.09844262 -102.25844002 8.10573006 C-106.44321709 8.11380586 -110.6279593 8.11398913 -114.81274414 8.11352539 C-116.6685183 8.1189183 -116.6685183 8.1189183 -118.56178284 8.12442017 C-124.14742466 8.11771728 -129.50087892 8.01298526 -135 7 C-135 6.67 -135 6.34 -135 6 C-89.79 6 -44.58 6 2 6 C1.01 4.515 1.01 4.515 0 3 C0 2.01 0 1.02 0 0 Z " fill="#646259" transform="translate(253,289)"/>
<path d="M0 0 C0 0.33 0 0.66 0 1 C-1.41140259 0.91190063 -1.41140259 0.91190063 -2.85131836 0.82202148 C-22.44039169 -0.87395949 -22.44039169 -0.87395949 -40.04296875 5.8515625 C-44.228288 9.81467476 -47.82313412 14.19367996 -51 19 C-51.66 18.34 -52.32 17.68 -53 17 C-39.6843443 -4.00534828 -22.28136008 -1.98060517 0 0 Z " fill="#63ADCD" transform="translate(317,130)"/>
<path d="M0 0 C0.99 0.33 1.98 0.66 3 1 C-6 10 -15 19 -24 28 C-24 24 -24 24 -21.796875 21.34277344 C-20.79145771 20.33798832 -19.77505493 19.34411834 -18.75 18.359375 C-17.95094238 17.56880707 -17.95094238 17.56880707 -17.13574219 16.76226807 C-15.43298606 15.08189366 -13.71685057 13.41595959 -12 11.75 C-10.84284093 10.61290353 -9.68657927 9.47489306 -8.53125 8.3359375 C-5.6978023 5.54658087 -2.85227568 2.77009576 0 0 Z " fill="#85989D" transform="translate(237,173)"/>
<path d="M0 0 C12.99902668 7.17752013 21.90852838 20.80815677 28 34 C28 34.66 28 35.32 28 36 C27.34 36 26.68 36 26 36 C25.32591692 34.73308493 24.66099503 33.46129251 24 32.1875 C23.443125 31.12595703 23.443125 31.12595703 22.875 30.04296875 C22 28 22 28 22 25 C21.34 25 20.68 25 20 25 C20 24.34 20 23.68 20 23 C19.34 22.67 18.68 22.34 18 22 C16.96236103 20.71704964 15.96705786 19.39945749 15 18.0625 C13.40650286 15.86745769 11.92136696 13.92136696 10 12 C8.33333333 10.33333333 6.66666667 8.66666667 5 7 C4.071875 6.113125 3.14375 5.22625 2.1875 4.3125 C0 2 0 2 0 0 Z " fill="#0D75A4" transform="translate(455,140)"/>
<path d="M0 0 C0.66 0 1.32 0 2 0 C6.19019212 11.45319178 6.60474607 23.67999926 2 35 C0.83759782 31.01339104 1.41050904 28.12643672 2 24 C2.47122736 15.81896939 1.43261182 8.04565033 0 0 Z " fill="#107199" transform="translate(458,190)"/>
<path d="M0 0 C0.33 0.99 0.66 1.98 1 3 C0.67 3.33 0.34 3.66 0 4 C14.19 4.33 28.38 4.66 43 5 C43 5.33 43 5.66 43 6 C27.16 6 11.32 6 -5 6 C-3.35 4.02 -1.7 2.04 0 0 Z " fill="#329ECC" transform="translate(358,147)"/>
<path d="M0 0 C0.66 0.33 1.32 0.66 2 1 C1.67 2.32 1.34 3.64 1 5 C-7.01146022 5.92330659 -15.01790373 6.49501803 -23 5 C-23.66 4.34 -24.32 3.68 -25 3 C-16.75 3 -8.5 3 0 3 C0 2.01 0 1.02 0 0 Z " fill="#1C7499" transform="translate(412,121)"/>
<path d="M0 0 C5.875 4.625 5.875 4.625 7 8 C-4.55 8 -16.1 8 -28 8 C-28 7.67 -28 7.34 -28 7 C-13.15 6.505 -13.15 6.505 2 6 C1.34 5.01 0.68 4.02 0 3 C0 2.01 0 1.02 0 0 Z " fill="#5C6467" transform="translate(253,289)"/>
<path d="M0 0 C13.53 0 27.06 0 41 0 C39 4 39 4 37 5 C37 4.01 37 3.02 37 2 C18.685 1.505 18.685 1.505 0 1 C0 0.67 0 0.34 0 0 Z " fill="#3C6C80" transform="translate(282,129)"/>
<path d="M0 0 C0.66 0.33 1.32 0.66 2 1 C0.44523615 2.77816682 -1.11816024 4.54727102 -2.6875 6.3125 C-3.55761719 7.29863281 -4.42773438 8.28476563 -5.32421875 9.30078125 C-8.82068313 12.82787159 -12.56590012 14.86506302 -17 17 C-11.90499173 10.6656654 -6.07469335 5.37210426 0 0 Z " fill="#2A7698" transform="translate(379,127)"/>
<path d="M0 0 C-2.44799863 2.44799863 -4.47600116 3.02552278 -7.75 4.125 C-8.77609375 4.47820312 -9.8021875 4.83140625 -10.859375 5.1953125 C-14.04227344 6.01083125 -16.73004326 6.14685434 -20 6 C-20 5.34 -20 4.68 -20 4 C-17.60612843 3.32550034 -15.21030779 2.66023359 -12.8125 2 C-12.13896484 1.80921875 -11.46542969 1.6184375 -10.77148438 1.421875 C-7.09444844 0.4174164 -3.8149818 -0.23704741 0 0 Z " fill="#387F9F" transform="translate(436,289)"/>
<path d="M0 0 C0.66 0 1.32 0 2 0 C0.55676531 4.73789165 -1.37226733 8.98858151 -3.625 13.375 C-3.94984375 14.01566406 -4.2746875 14.65632813 -4.609375 15.31640625 C-5.40257407 16.87947501 -6.20077031 18.44000622 -7 20 C-7.33 19.34 -7.66 18.68 -8 18 C-7.109375 15.390625 -7.109375 15.390625 -5.75 12.25 C-5.28722656 11.1775 -4.82445312 10.105 -4.34765625 9 C-2.97709418 5.94900966 -1.56078649 2.95727967 0 0 Z " fill="#989A8F" transform="translate(157,74)"/>
<path d="M0 0 C-1.42992198 3.45564479 -2.96915882 4.87021971 -6 7 C-8.35743004 8.97212965 -10.6788816 10.98532139 -13 13 C-13.66 12.67 -14.32 12.34 -15 12 C-13.07141188 9.99068029 -11.133102 7.99272731 -9.1875 6 C-8.64029297 5.42765625 -8.09308594 4.8553125 -7.52929688 4.265625 C-3.33984375 0 -3.33984375 0 0 0 Z " fill="#557A8A" transform="translate(265,148)"/>
<path d="M0 0 C3.68748309 -0.02925502 7.37493592 -0.04688418 11.0625 -0.0625 C12.10083984 -0.07087891 13.13917969 -0.07925781 14.20898438 -0.08789062 C19.58723069 -0.10496442 24.70333211 0.04584848 30 1 C30 1.33 30 1.66 30 2 C22.25 3.125 22.25 3.125 20 2 C18.4804236 1.84876169 16.95527498 1.75118307 15.4296875 1.68359375 C14.53378906 1.64169922 13.63789063 1.59980469 12.71484375 1.55664062 C11.77769531 1.51732422 10.84054688 1.47800781 9.875 1.4375 C8.93011719 1.39431641 7.98523438 1.35113281 7.01171875 1.30664062 C4.67462908 1.20040928 2.3374317 1.09836824 0 1 C0 0.67 0 0.34 0 0 Z " fill="#315564" transform="translate(239,19)"/>
<path d="M0 0 C0.33 0 0.66 0 1 0 C1.3689719 7.31110994 0.81552726 13.21256822 -2 20 C-3.31052767 15.69577494 -2.45785552 12.0629466 -1.5625 7.75 C-1.41490234 7.00492188 -1.26730469 6.25984375 -1.11523438 5.4921875 C-0.7511306 3.65992335 -0.37658591 1.82973947 0 0 Z " fill="#157CA8" transform="translate(462,205)"/>
<path d="M0 0 C0.66 0.99 1.32 1.98 2 3 C0.5484451 4.67257355 -0.91144409 6.33791758 -2.375 8 C-3.18710938 8.928125 -3.99921875 9.85625 -4.8359375 10.8125 C-5.55007812 11.534375 -6.26421875 12.25625 -7 13 C-7.66 13 -8.32 13 -9 13 C-7.50923566 9.7173068 -5.61379679 7.06922559 -3.375 4.25 C-2.74335938 3.45078125 -2.11171875 2.6515625 -1.4609375 1.828125 C-0.97882813 1.22484375 -0.49671875 0.6215625 0 0 Z " fill="#8E9897" transform="translate(172,53)"/>
<path d="M0 0 C0.66 0 1.32 0 2 0 C2.8680908 1.91040052 3.71901783 3.82860737 4.5625 5.75 C5.03816406 6.81734375 5.51382812 7.8846875 6.00390625 8.984375 C6.9946154 11.98369837 7.16161779 13.13421241 6 16 C4.45921385 13.01559439 3.13026724 9.98992242 1.875 6.875 C1.52179688 6.00617188 1.16859375 5.13734375 0.8046875 4.2421875 C0 2 0 2 0 0 Z " fill="#13729B" transform="translate(404,93)"/>
<path d="M0 0 C1.32830615 3.98491845 0.23204404 5.40048548 -1.4375 9.1875 C-1.91058594 10.27417969 -2.38367188 11.36085937 -2.87109375 12.48046875 C-3.42990234 13.72763672 -3.42990234 13.72763672 -4 15 C-4.66 14.67 -5.32 14.34 -6 14 C-4.66666667 10 -3.33333333 6 -2 2 C-1.34 2 -0.68 2 0 2 C0 1.34 0 0.68 0 0 Z " fill="#176E96" transform="translate(485,233)"/>
<path d="M0 0 C7.41017023 -0.11459026 14.64206267 0.08839714 22 1 C22 1.33 22 1.66 22 2 C20.20909747 2.19466332 18.41723495 2.38051213 16.625 2.5625 C15.12839844 2.71912109 15.12839844 2.71912109 13.6015625 2.87890625 C11 3 11 3 9 2 C7.46331135 1.77532169 5.92031946 1.59203195 4.375 1.4375 C3.55773437 1.35371094 2.74046875 1.26992188 1.8984375 1.18359375 C1.27195312 1.12300781 0.64546875 1.06242187 0 1 C0 0.67 0 0.34 0 0 Z " fill="#1E546C" transform="translate(337,25)"/>
<path d="M0 0 C1.65 0 3.3 0 5 0 C4.38722388 2.96175123 3.74627478 4.38058783 2 7 C1.01 6.67 0.02 6.34 -1 6 C-0.67 4.02 -0.34 2.04 0 0 Z " fill="#A59F8A" transform="translate(165,224)"/>
<path d="M0 0 C2 0 2 0 3.69140625 1.609375 C4.30886719 2.31578125 4.92632812 3.0221875 5.5625 3.75 C6.49255859 4.79414063 6.49255859 4.79414063 7.44140625 5.859375 C8.98531094 7.97982555 9.57896851 9.43920573 10 12 C2.15820312 5.5546875 2.15820312 5.5546875 0 2 C0 1.34 0 0.68 0 0 Z " fill="#839495" transform="translate(223,209)"/>
<path d="M0 0 C5.01009707 1.43145631 7.10619424 3.82951522 10 8 C9.67 8.99 9.34 9.98 9 11 C7.49703315 9.35687553 5.99769719 7.71042916 4.5 6.0625 C3.6646875 5.14597656 2.829375 4.22945312 1.96875 3.28515625 C0 1 0 1 0 0 Z " fill="#1477A3" transform="translate(441,165)"/>
<path d="M0 0 C5.94 0 11.88 0 18 0 C17.01 1.65 16.02 3.3 15 5 C14.34 4.01 13.68 3.02 13 2 C9.88389446 1.41407366 9.88389446 1.41407366 6.375 1.3125 C5.18648437 1.24675781 3.99796875 1.18101562 2.7734375 1.11328125 C1.85820313 1.07589844 0.94296875 1.03851563 0 1 C0 0.67 0 0.34 0 0 Z " fill="#A3A2A0" transform="translate(58,346)"/>
<path d="M0 0 C0.99 0.33 1.98 0.66 3 1 C0.36 3.64 -2.28 6.28 -5 9 C-5.66 8.34 -6.32 7.68 -7 7 C-4.69 4.69 -2.38 2.38 0 0 Z " fill="#6EA9C1" transform="translate(271,140)"/>
<path d="M0 0 C3.59634744 3.49359465 6.83451967 7.11098131 10 11 C9.34 11.66 8.68 12.32 8 13 C7.401875 12.071875 6.80375 11.14375 6.1875 10.1875 C4.24318237 7.12499449 4.24318237 7.12499449 2.3125 5.375 C0.69306938 3.67845363 0.3931913 2.28050956 0 0 Z " fill="#10719C" transform="translate(410,53)"/>
<path d="M0 0 C0.66 0.33 1.32 0.66 2 1 C-0.63848309 4.61569905 -2.95293333 7.02835214 -7 9 C-7.99 9 -8.98 9 -10 9 C-6.7 6.03 -3.4 3.06 0 0 Z " fill="#A69972" transform="translate(80,137)"/>
<path d="M0 0 C0.99 0 1.98 0 3 0 C3 0.66 3 1.32 3 2 C3.66 2 4.32 2 5 2 C5.33 3.32 5.66 4.64 6 6 C6.66 6 7.32 6 8 6 C8.33 6.99 8.66 7.98 9 9 C8.01 9 7.02 9 6 9 C4.39453125 7.03125 4.39453125 7.03125 2.8125 4.5 C2.28269531 3.6646875 1.75289063 2.829375 1.20703125 1.96875 C0.80871094 1.3190625 0.41039062 0.669375 0 0 Z " fill="#18759D" transform="translate(392,76)"/>
<path d="M0 0 C4.29951803 1.59241408 6.39671947 4.35540725 9 8 C8.67 8.99 8.34 9.98 8 11 C6.66072279 9.54712339 5.32873153 8.08752741 4 6.625 C3.2575 5.81289062 2.515 5.00078125 1.75 4.1640625 C0 2 0 2 0 0 Z " fill="#7B9CA4" transform="translate(257,245)"/>
<path d="M0 0 C1.4391134 0.28359887 2.87625518 0.57721399 4.3125 0.875 C5.11300781 1.03742187 5.91351563 1.19984375 6.73828125 1.3671875 C9 2 9 2 12 4 C8.69564916 5.12377697 6.9493138 4.89554742 3.75 3.5625 C3.04359375 3.27503906 2.3371875 2.98757812 1.609375 2.69140625 C1.07828125 2.46324219 0.5471875 2.23507813 0 2 C0 1.34 0 0.68 0 0 Z " fill="#1F7297" transform="translate(368,29)"/>
<path d="M0 0 C0.59296875 0.21527344 1.1859375 0.43054687 1.796875 0.65234375 C0.70241662 1.51891491 -0.40410281 2.37027099 -1.515625 3.21484375 C-2.13050781 3.69050781 -2.74539062 4.16617188 -3.37890625 4.65625 C-3.98089844 4.98496094 -4.58289063 5.31367187 -5.203125 5.65234375 C-6.193125 5.32234375 -7.183125 4.99234375 -8.203125 4.65234375 C-2.74543269 -0.43323317 -2.74543269 -0.43323317 0 0 Z " fill="#7C99A2" transform="translate(192.203125,37.34765625)"/>
<path d="M0 0 C0.33 0 0.66 0 1 0 C0.53199289 4.05606165 0.12046792 7.46588679 -2 11 C-2.66 11 -3.32 11 -4 11 C-3.52269162 9.5410574 -3.04308958 8.08286504 -2.5625 6.625 C-2.29566406 5.81289062 -2.02882812 5.00078125 -1.75390625 4.1640625 C-1 2 -1 2 0 0 Z " fill="#9C9C8D" transform="translate(182,185)"/>
<path d="M0 0 C0.33 0.66 0.66 1.32 1 2 C-1.17508418 6.69360269 -1.17508418 6.69360269 -4.1875 7.8125 C-4.785625 7.874375 -5.38375 7.93625 -6 8 C-2.25 2.25 -2.25 2.25 0 0 Z " fill="#B6A879" transform="translate(69,147)"/>
<path d="M0 0 C2.04119788 1.61594832 4.04072937 3.2856382 6 5 C6 5.66 6 6.32 6 7 C4.125 6.6875 4.125 6.6875 2 6 C0 3 0 3 0 0 Z " fill="#758C94" transform="translate(253,289)"/>
<path d="M0 0 C0.33 0.99 0.66 1.98 1 3 C-1.31 4.98 -3.62 6.96 -6 9 C-6.66 8.67 -7.32 8.34 -8 8 C-5.36 5.36 -2.72 2.72 0 0 Z " fill="#2A7193" transform="translate(447,246)"/>
<path d="M0 0 C3.37503669 1.1858237 5.64722731 2.27573689 8 5 C7.01 5.495 7.01 5.495 6 6 C3.875 5.0625 3.875 5.0625 2 4 C2 3.34 2 2.68 2 2 C1.34 2 0.68 2 0 2 C0 1.34 0 0.68 0 0 Z " fill="#0E719B" transform="translate(444,133)"/>
<path d="M0 0 C0.33 0 0.66 0 1 0 C0.125 6.75 0.125 6.75 -1 9 C-1.66 9 -2.32 9 -3 9 C-2.01 6.03 -1.02 3.06 0 0 Z " fill="#878F8A" transform="translate(196,153)"/>
<path d="M0 0 C0.99 0.33 1.98 0.66 3 1 C1.75023244 4.65316671 1.32901247 5.78065836 -2 8 C-2 7.01 -2 6.02 -2 5 C-1.34 5 -0.68 5 0 5 C0 3.35 0 1.7 0 0 Z " fill="#547A8E" transform="translate(247,113)"/>
</svg>
